File Name

Tormented 2009 BRRip H264.mp4

File Size
Format : MPEG-4
Format profile : Base Media
Codec ID : isom
File size : 1.84 GiB
Duration : 1h 31mn
Overall bit rate : 2 880 Kbps

Video
ID : 1
Format : AVC
Format/Info : Advanced Video Codec
Format profile : High@L4.1
Format settings, CABAC : Yes
Format settings, ReFrames : 3 frames
Codec ID : avc1
Codec ID/Info : Advanced Video Coding
Duration : 1h 31mn
Bit rate mode : Variable
Bit rate : 2 299 Kbps
Maximum bit rate : 14.9 Mbps
Width : 1 280 pixels
Height : 720 pixels
Display aspect ratio : 16:9
Frame rate mode : Constant
Frame rate : 23.976 fps
Resolution : 24 bits
Colorimetry : 4:2:0
Scan type : Progressive
Bits/(Pixel*Frame) : 0.104
Stream size : 1.47 GiB (80%)

Audio #1
ID : 2
Format : AAC
Format/Info : Advanced Audio Codec
Format version : Version 4
Format profile : LC
Format settings, SBR : No
Codec ID : 40
Duration : 1h 31mn
Bit rate mode : Variable
Bit rate : 128 Kbps
Maximum bit rate : 138 Kbps
Channel(s) : 2 channels
Channel positions : L R
Sampling rate : 48.0 KHz
Resolution : 16 bits
Stream size : 83.6 MiB (4%)

Audio #2
ID : 3
Format : AAC
Format/Info : Advanced Audio Codec
Format version : Version 4
Format profile : LC
Format settings, SBR : No
Codec ID : 40
Duration : 1h 31mn
Bit rate mode : Variable
Bit rate : 448 Kbps
Maximum bit rate : 462 Kbps
Channel(s) : 6 channels
Channel positions : Front: L C R, Rear: L R, LFE
Sampling rate : 48.0 KHz
Resolution : 16 bits
Stream size : 292 MiB (16%)

English SRT : ----

Language : English


 
http://www.imdb.com/title/tt1100053/

Release Date: 22 May 2009 (UK) 

Genre: Comedy | Horror 

Plot: The head girl Justine gives a speech on the funeral of the teenage schoolmate Darren Mullet that has just committed suicide but she does not recall who he was. Then she is invited by Alexis to date him in the celebration party in the house of his friend Bradley. Sooner Justine discovers that Darren had a crush on her and was bullied by Bradley and his friends including Alexis. When each one of Bradley's friends is found dead, they discover that Darren has returned from beyond to revenge the humiliations he was submitted.

Cast: 
Alex Pettyfer ... Bradley
April Pearson ... Tasha
Dimitri Leonidas ... Alexis
Calvin Dean ... Darren Mullet
Tuppence Middleton ... Justine
Georgia King ... Sophie
Mary Nighy ... Helena
James Floyd ... Nasser
Sophie Wu ... Mai Lee
Hugh Mitchell ... Tim
Larissa Wilson ... Khalillah
Ruby Bentall ... Emily
Tom Hopper ... Marcus
Peter Amory ... Head teacher



Screenshots
 
http://postimg.com/image/19000/18209.jpg
 
http://postimg.com/image/19000/18210.jpg
 
http://postimg.com/image/19000/18211.jpg